<svg version="1.1" id="Layer_1" xmlns="http://www.w3.org/2000/svg" xmlns:xlink="http://www.w3.org/1999/xlink" x="0px" y="0px"
	 width="100%" viewBox="0 0 503 496" enable-background="new 0 0 503 496" xml:space="preserve">
<path fill="#FFFFFF" opacity="1.000000" stroke="none" 
	d="
M337.000000,497.000000 
	C224.666687,497.000000 112.833389,497.000000 1.000060,497.000000 
	C1.000040,331.666748 1.000040,166.333466 1.000020,1.000149 
	C168.666565,1.000099 336.333130,1.000099 503.999756,1.000050 
	C503.999847,166.333191 503.999847,331.666382 503.999939,496.999786 
	C448.500000,497.000000 393.000000,497.000000 337.000000,497.000000 
M224.801254,360.073395 
	C232.921463,360.655396 241.033401,361.535370 249.163498,361.760590 
	C269.291779,362.318115 289.427307,362.670013 309.562256,362.892639 
	C315.029388,362.953125 319.038727,364.856628 322.246887,369.328644 
	C332.246979,383.268372 345.161804,394.265076 358.607483,404.693085 
	C362.055542,407.367310 365.891357,408.112518 369.821930,406.268646 
	C373.829407,404.388702 375.360168,400.998535 375.204102,396.478577 
	C374.951416,389.160370 375.052734,381.826172 375.149231,374.500641 
	C375.268524,365.444855 379.870819,360.609375 388.757812,359.977020 
	C400.430634,359.146393 408.970367,351.506775 409.917877,339.919678 
	C411.325836,322.700958 413.011780,305.424347 412.908722,288.182343 
	C412.767792,264.601257 411.252655,241.018707 409.931824,217.458923 
	C409.365906,207.364777 401.979218,199.123932 392.164734,198.068024 
	C378.300415,196.576447 364.340393,195.653122 350.399750,195.268677 
	C330.623444,194.723312 310.827484,194.889557 290.776520,193.875168 
	C290.739594,193.210846 290.654633,192.545242 290.672638,191.882401 
	C291.445770,163.392685 290.750824,134.961853 287.961517,106.573189 
	C286.948914,96.267159 278.781250,86.205605 268.586853,85.802391 
	C253.963562,85.223999 239.369934,83.623955 224.747391,83.360031 
	C200.591385,82.924034 176.420074,83.003960 152.259964,83.280830 
	C141.798660,83.400719 131.349197,84.551315 119.990898,85.067192 
	C116.666428,85.095749 113.341995,85.140381 110.017471,85.150085 
	C95.452415,85.192589 86.680092,93.138100 85.183174,107.549515 
	C81.307045,144.866608 81.550064,182.181381 85.193443,219.494797 
	C86.557770,233.467560 93.518326,240.907471 106.776085,242.059204 
	C115.557907,243.154785 119.044357,247.014099 119.092499,255.761002 
	C119.128189,262.245850 119.270340,268.735687 119.073448,275.214386 
	C118.931313,279.891571 119.879562,284.091034 124.284744,286.204773 
	C128.721207,288.333588 132.761169,286.999420 136.675232,283.857178 
	C149.543365,273.526459 161.754135,262.628082 171.667007,249.272141 
	C173.309647,247.058960 176.861832,245.400101 179.695526,245.115067 
	C185.438812,244.537369 191.294342,245.075760 197.075409,246.047241 
	C196.998611,249.207230 197.031540,252.374329 196.827850,255.526108 
	C194.998749,283.827087 196.479553,312.041382 199.619934,340.152771 
	C201.078156,353.206116 210.673065,360.438202 224.801254,360.073395 
z"/>
<path fill="#F9D942" opacity="1.000000" stroke="none" 
	d="
M120.894348,85.233742 
	C131.349197,84.551315 141.798660,83.400719 152.259964,83.280830 
	C176.420074,83.003960 200.591385,82.924034 224.747391,83.360031 
	C239.369934,83.623955 253.963562,85.223999 268.586853,85.802391 
	C278.781250,86.205605 286.948914,96.267159 287.961517,106.573189 
	C290.750824,134.961853 291.445770,163.392685 290.672638,191.882401 
	C290.654633,192.545242 290.739594,193.210846 290.813904,194.740295 
	C290.197113,202.852463 289.364471,210.088745 288.927551,217.348846 
	C288.124023,230.700043 281.106506,240.338837 270.496124,241.756165 
	C265.091217,242.478134 259.610077,242.687027 254.155106,242.965637 
	C239.108322,243.734070 224.057175,244.417023 208.552811,245.050964 
	C204.433121,245.030106 200.768356,245.092072 197.103607,245.154022 
	C191.294342,245.075760 185.438812,244.537369 179.695526,245.115067 
	C176.861832,245.400101 173.309647,247.058960 171.667007,249.272141 
	C161.754135,262.628082 149.543365,273.526459 136.675232,283.857178 
	C132.761169,286.999420 128.721207,288.333588 124.284744,286.204773 
	C119.879562,284.091034 118.931313,279.891571 119.073448,275.214386 
	C119.270340,268.735687 119.128189,262.245850 119.092499,255.761002 
	C119.044357,247.014099 115.557907,243.154785 106.347488,241.622620 
	C105.595795,240.614532 105.380005,239.935959 104.933044,239.488052 
	C100.379585,234.924835 97.051308,229.895096 96.770851,223.080063 
	C96.424072,214.653473 95.301392,206.256958 95.010017,197.830292 
	C94.475784,182.380310 93.782234,166.906082 94.127037,151.463669 
	C94.485382,135.415085 96.061516,119.396004 96.975494,103.356644 
	C97.559700,93.104385 104.869606,86.014427 115.089241,85.948341 
	C117.025734,85.935814 118.959389,85.483261 120.894348,85.233742 
M217.508423,197.705353 
	C217.726990,197.186523 217.945557,196.667679 218.885620,196.063171 
	C222.728500,195.343506 223.601761,192.363770 224.882065,189.039764 
	C226.569321,185.008316 228.867294,181.084991 229.610657,176.886429 
	C229.868820,175.428436 226.534241,172.349762 224.362335,171.753555 
	C222.582489,171.264969 219.840530,173.020355 217.982040,174.397659 
	C215.647797,176.127563 213.779526,178.486267 211.343277,180.943680 
	C212.504227,183.468735 211.859894,185.615158 208.341934,187.333954 
	C206.409592,188.278030 205.320023,190.947067 203.296188,192.963959 
	C202.830566,193.265533 202.364929,193.567123 201.078125,193.927200 
	C194.257370,195.516998 187.483368,197.159027 180.402161,195.085434 
	C177.745956,194.307632 174.871872,194.273880 171.901062,193.223969 
	C170.632996,192.776352 169.364944,192.328751 167.851944,191.478256 
	C167.651443,191.226273 167.403397,191.036407 166.982574,190.253403 
	C166.014404,189.475632 165.046249,188.697876 163.921921,187.272476 
	C163.004593,186.782288 162.087280,186.292114 161.107117,185.137604 
	C161.559448,184.012924 162.011780,182.888245 162.461716,181.769531 
	C161.018814,181.489182 159.552322,181.204254 158.027710,180.190674 
	C157.368179,179.112015 156.708649,178.033371 156.015884,176.167526 
	C154.701965,171.496948 151.441147,170.575089 147.099197,173.951111 
	C146.065765,175.589355 144.110138,177.262100 144.169861,178.859467 
	C144.357590,183.880463 146.133850,188.408264 151.023117,191.808456 
	C152.978378,193.909363 152.180573,198.619705 157.002441,198.813416 
	C159.764893,203.420685 164.767853,204.237106 169.150742,206.289902 
	C180.791046,211.741898 192.427139,210.661697 204.135483,206.974289 
	C205.314621,206.602905 206.141815,205.114105 207.886581,204.055130 
	C209.743484,204.178513 211.600388,204.301880 212.913971,204.389160 
	C213.369949,202.657394 213.712540,201.356277 214.681610,199.965591 
	C215.467392,199.320847 216.253189,198.676102 217.508423,197.705353 
M163.077301,143.380096 
	C161.617111,138.031082 160.959900,132.267075 158.470352,127.450073 
	C155.992508,122.655792 148.680557,122.972595 145.197144,127.125191 
	C138.959076,134.561615 139.040085,150.346710 145.353256,157.546341 
	C149.420959,162.185196 155.171356,162.404617 158.401947,157.199890 
	C160.761200,153.398941 161.560654,148.629822 163.077301,143.380096 
M222.478226,122.003517 
	C219.198044,122.605492 215.917862,123.207458 212.562775,123.823174 
	C215.593750,128.296585 211.624329,127.570084 209.247925,127.647232 
	C209.247925,131.592117 209.845749,135.259476 209.127991,138.648209 
	C207.444855,146.594757 209.741608,153.240128 213.728821,160.003677 
	C215.884644,163.660614 218.867584,164.376236 222.144653,164.686707 
	C223.779037,164.841553 225.672943,163.506714 227.259613,162.535553 
	C228.623627,161.700653 230.164124,160.651428 230.848236,159.302277 
	C232.932373,155.192062 234.640320,150.891083 236.648071,146.314713 
	C235.255722,139.974091 233.643127,132.630524 231.903168,124.707016 
	C229.911453,124.083183 226.599411,123.045815 222.478226,122.003517 
M203.346970,189.183533 
	C202.340607,187.567215 202.340607,187.567215 200.309113,191.207977 
	C201.628250,190.505402 202.335251,190.128860 203.346970,189.183533 
M234.742416,178.013962 
	C234.590790,177.176544 234.439148,176.339127 234.287506,175.501709 
	C233.817902,175.652191 233.348312,175.802673 232.878723,175.953156 
	C233.355362,176.796661 233.832001,177.640182 234.742416,178.013962 
M215.479340,169.661331 
	C215.959717,170.300766 216.440109,170.940186 216.920517,171.579636 
	C217.212952,171.276886 217.505386,170.974136 217.797806,170.671387 
	C217.188370,170.199020 216.578934,169.726654 215.479340,169.661331 
M235.257980,155.987671 
	C235.408920,156.822617 235.559875,157.657562 235.710831,158.492508 
	C236.165894,158.321701 236.620941,158.150909 237.076004,157.980103 
	C236.614029,157.159821 236.152054,156.339539 235.257980,155.987671 
M225.399185,167.770645 
	C225.878784,168.445190 226.358383,169.119736 226.837982,169.794281 
	C227.160370,169.480347 227.482742,169.166397 227.805130,168.852463 
	C227.142242,168.356445 226.479340,167.860413 225.399185,167.770645 
M213.490433,118.849190 
	C213.792450,118.426445 214.094467,118.003700 214.396484,117.580956 
	C213.949829,117.468613 213.503159,117.356270 213.056503,117.243927 
	C213.003128,117.738869 212.949753,118.233810 213.490433,118.849190 
M235.439957,131.707840 
	C235.708008,131.989258 235.976074,132.270676 236.244141,132.552109 
	C236.360291,132.440689 236.583771,132.238907 236.577042,132.230896 
	C236.327164,131.934067 236.055984,131.655136 235.439957,131.707840 
z"/>
<path fill="#79CFB0" opacity="1.000000" stroke="none" 
	d="
M209.007751,245.133789 
	C224.057175,244.417023 239.108322,243.734070 254.155106,242.965637 
	C259.610077,242.687027 265.091217,242.478134 270.496124,241.756165 
	C281.106506,240.338837 288.124023,230.700043 288.927551,217.348846 
	C289.364471,210.088745 290.197113,202.852463 290.945618,195.178574 
	C310.827484,194.889557 330.623444,194.723312 350.399750,195.268677 
	C364.340393,195.653122 378.300415,196.576447 392.164734,198.068024 
	C401.979218,199.123932 409.365906,207.364777 409.931824,217.458923 
	C411.252655,241.018707 412.767792,264.601257 412.908722,288.182343 
	C413.011780,305.424347 411.325836,322.700958 409.917877,339.919678 
	C408.970367,351.506775 400.430634,359.146393 388.757812,359.977020 
	C379.870819,360.609375 375.268524,365.444855 375.149231,374.500641 
	C375.052734,381.826172 374.951416,389.160370 375.204102,396.478577 
	C375.360168,400.998535 373.829407,404.388702 369.821930,406.268646 
	C365.891357,408.112518 362.055542,407.367310 358.607483,404.693085 
	C345.161804,394.265076 332.246979,383.268372 322.246887,369.328644 
	C319.038727,364.856628 315.029388,362.953125 309.562256,362.892639 
	C289.427307,362.670013 269.291779,362.318115 249.163498,361.760590 
	C241.033401,361.535370 232.921463,360.655396 224.164154,359.748718 
	C215.865280,356.176697 211.964813,349.712402 211.215637,342.093201 
	C209.643997,326.109741 208.482925,310.044617 208.148987,293.992310 
	C207.810440,277.719116 208.671906,261.420990 209.007751,245.133789 
M283.561554,333.281311 
	C286.568207,334.524506 289.556335,336.788696 292.584564,336.843689 
	C311.057709,337.178925 329.540253,337.069244 348.019043,336.980530 
	C354.041260,336.951599 357.657990,331.954407 356.297180,325.154388 
	C355.532990,323.755646 354.768768,322.356934 353.814941,320.523499 
	C353.629639,320.244232 353.372406,320.072968 352.922943,319.510651 
	C352.854065,319.354004 352.785217,319.197327 353.200073,318.505188 
	C354.334351,317.835846 355.539490,317.261810 356.590393,316.480316 
	C360.694885,313.428070 361.807831,308.284271 359.177185,304.005493 
	C358.144196,302.653870 357.111176,301.302277 356.142731,299.272980 
	C358.246674,297.503906 360.697113,296.005188 362.351379,293.885223 
	C363.833374,291.985992 366.506195,289.634857 363.216064,286.124908 
	C362.609436,281.917572 360.017792,279.722992 356.014954,278.279755 
	C356.998657,276.989288 358.113800,275.777100 358.938507,274.391998 
	C360.616241,271.574127 362.616394,268.676086 359.161530,264.954041 
	C357.697662,260.381348 354.032379,259.118073 349.818695,259.023346 
	C343.833313,258.888733 337.842651,258.990356 331.854248,258.990875 
	C329.316040,258.991119 326.777863,258.990906 323.182007,258.990906 
	C327.148987,250.548492 330.570435,243.394547 333.877625,236.188156 
	C336.480957,230.515533 334.762390,223.934296 329.871521,220.222900 
	C322.455994,214.689194 312.922638,217.567566 309.350922,226.716293 
	C305.682404,236.113068 300.447235,243.973129 291.674133,249.536072 
	C288.705719,251.418304 286.975098,255.299774 284.787476,258.345642 
	C283.741150,259.802460 282.948425,261.441437 281.725342,262.354187 
	C280.393829,261.405334 279.090729,259.688995 277.725952,259.638458 
	C271.300385,259.400574 264.825348,259.251160 258.433777,259.815399 
	C254.673615,260.147308 253.011688,263.381927 253.013077,267.099762 
	C253.018784,282.382812 253.085373,297.665833 252.979858,313.885010 
	C252.969223,317.848083 252.935333,321.811249 252.953049,325.774200 
	C252.984756,332.871307 255.506516,335.633270 262.761658,335.853333 
	C269.631042,336.061676 276.649231,336.786499 283.561554,333.281311 
z"/>
<path fill="#ECCA39" opacity="1.000000" stroke="none" 
	d="
M120.442627,85.150467 
	C118.959389,85.483261 117.025734,85.935814 115.089241,85.948341 
	C104.869606,86.014427 97.559700,93.104385 96.975494,103.356644 
	C96.061516,119.396004 94.485382,135.415085 94.127037,151.463669 
	C93.782234,166.906082 94.475784,182.380310 95.010017,197.830292 
	C95.301392,206.256958 96.424072,214.653473 96.770851,223.080063 
	C97.051308,229.895096 100.379585,234.924835 104.933044,239.488052 
	C105.380005,239.935959 105.595795,240.614532 105.963181,241.521454 
	C93.518326,240.907471 86.557770,233.467560 85.193443,219.494797 
	C81.550064,182.181381 81.307045,144.866608 85.183174,107.549515 
	C86.680092,93.138100 95.452415,85.192589 110.017471,85.150085 
	C113.341995,85.140381 116.666428,85.095749 120.442627,85.150467 
z"/>
<path fill="#6AB59F" opacity="1.000000" stroke="none" 
	d="
M208.552826,245.050964 
	C208.671906,261.420990 207.810440,277.719116 208.148987,293.992310 
	C208.482925,310.044617 209.643997,326.109741 211.215637,342.093201 
	C211.964813,349.712402 215.865280,356.176697 223.740417,359.677979 
	C210.673065,360.438202 201.078156,353.206116 199.619934,340.152771 
	C196.479553,312.041382 194.998749,283.827087 196.827850,255.526108 
	C197.031540,252.374329 196.998611,249.207230 197.089508,245.600632 
	C200.768356,245.092072 204.433121,245.030106 208.552826,245.050964 
z"/>
<path fill="#2A3B60" opacity="1.000000" stroke="none" 
	d="
M163.066360,143.836182 
	C161.560654,148.629822 160.761200,153.398941 158.401947,157.199890 
	C155.171356,162.404617 149.420959,162.185196 145.353256,157.546341 
	C139.040085,150.346710 138.959076,134.561615 145.197144,127.125191 
	C148.680557,122.972595 155.992508,122.655792 158.470352,127.450073 
	C160.959900,132.267075 161.617111,138.031082 163.066360,143.836182 
z"/>
<path fill="#ECD35D" opacity="1.000000" stroke="none" 
	d="
M222.882797,122.005981 
	C226.599411,123.045815 229.911453,124.083183 231.903168,124.707016 
	C233.643127,132.630524 235.255722,139.974091 236.648071,146.314713 
	C234.640320,150.891083 232.932373,155.192062 230.848236,159.302277 
	C230.164124,160.651428 228.623627,161.700653 227.259613,162.535553 
	C225.672943,163.506714 223.779037,164.841553 222.144653,164.686707 
	C218.867584,164.376236 215.884644,163.660614 213.728821,160.003677 
	C209.741608,153.240128 207.444855,146.594757 209.127991,138.648209 
	C209.845749,135.259476 209.247925,131.592117 209.247925,127.647232 
	C211.624329,127.570084 215.593750,128.296585 212.562775,123.823174 
	C215.917862,123.207458 219.198044,122.605492 222.882797,122.005981 
M211.215515,146.846970 
	C212.787354,150.454834 213.780518,154.491440 216.063293,157.572586 
	C219.713821,162.499863 224.752457,161.987930 228.384155,157.021271 
	C233.885178,149.498199 234.273209,136.716431 229.244522,128.680954 
	C225.393295,122.526970 218.406555,122.503487 214.476303,128.718185 
	C211.131042,134.007874 210.579880,139.905579 211.215515,146.846970 
z"/>
<path fill="#ECD35D" opacity="1.000000" stroke="none" 
	d="
M203.850464,192.838364 
	C205.320023,190.947067 206.409592,188.278030 208.341934,187.333954 
	C211.859894,185.615158 212.504227,183.468735 211.343277,180.943680 
	C213.779526,178.486267 215.647797,176.127563 217.982040,174.397659 
	C219.840530,173.020355 222.582489,171.264969 224.362335,171.753555 
	C226.534241,172.349762 229.868820,175.428436 229.610657,176.886429 
	C228.867294,181.084991 226.569321,185.008316 224.442047,189.022949 
	C224.002045,189.006134 223.850189,188.871445 223.935425,188.529480 
	C224.909256,186.597137 225.846634,185.031693 226.676025,183.410995 
	C228.285889,180.265137 229.430359,176.890747 225.481430,174.787735 
	C221.494034,172.664246 219.535858,175.411316 217.876282,178.690536 
	C214.756485,184.855072 210.618484,190.146713 204.090393,193.117172 
	C204.011032,193.023712 203.850464,192.838364 203.850464,192.838364 
z"/>
<path fill="#ECD35D" opacity="1.000000" stroke="none" 
	d="
M207.132339,204.143890 
	C206.141815,205.114105 205.314621,206.602905 204.135483,206.974289 
	C192.427139,210.661697 180.791046,211.741898 169.150742,206.289902 
	C164.767853,204.237106 159.764893,203.420685 157.141052,198.260254 
	C157.279663,197.707077 157.613800,197.357208 157.896667,197.539383 
	C173.174667,209.539078 189.463501,210.961975 206.900482,203.868179 
	C206.977173,203.960587 207.132339,204.143890 207.132339,204.143890 
z"/>
<path fill="#ECD35D" opacity="1.000000" stroke="none" 
	d="
M172.097122,193.900894 
	C174.871872,194.273880 177.745956,194.307632 180.402161,195.085434 
	C187.483368,197.159027 194.257370,195.516998 201.568802,194.001984 
	C202.059479,194.076752 202.221237,194.283585 201.960785,194.528061 
	C191.641846,199.235031 181.639908,199.692108 171.813263,194.236450 
	C171.906693,194.123596 172.097122,193.900894 172.097122,193.900894 
z"/>
<path fill="#ECD35D" opacity="1.000000" stroke="none" 
	d="
M150.861801,191.131317 
	C146.133850,188.408264 144.357590,183.880463 144.169861,178.859467 
	C144.110138,177.262100 146.065765,175.589355 147.578857,174.017578 
	C148.058517,174.084030 148.253448,174.311600 148.019867,174.596893 
	C147.350769,177.271332 146.092102,179.887741 146.674103,181.996002 
	C147.530655,185.098770 149.700226,187.839050 151.197906,190.832672 
	C151.085327,190.931595 150.861801,191.131317 150.861801,191.131317 
z"/>
<path fill="#ECD35D" opacity="1.000000" stroke="none" 
	d="
M147.958313,173.972656 
	C151.441147,170.575089 154.701965,171.496948 155.888153,176.677368 
	C155.760437,177.187225 155.470520,177.418198 155.259781,177.147552 
	C152.783844,176.021790 150.518646,175.166702 148.253448,174.311600 
	C148.253448,174.311600 148.058517,174.084030 147.958313,173.972656 
z"/>
<path fill="#ECD35D" opacity="1.000000" stroke="none" 
	d="
M157.112747,197.882156 
	C152.180573,198.619705 152.978378,193.909363 150.942459,191.469879 
	C150.861801,191.131317 151.085327,190.931595 151.468002,191.017761 
	C153.771729,193.188339 155.692764,195.272766 157.613800,197.357208 
	C157.613800,197.357208 157.279663,197.707077 157.112747,197.882156 
z"/>
<path fill="#ECD35D" opacity="1.000000" stroke="none" 
	d="
M214.055115,200.055161 
	C213.712540,201.356277 213.369949,202.657394 212.913971,204.389160 
	C211.600388,204.301880 209.743484,204.178513 207.509460,204.099518 
	C207.132339,204.143890 206.977173,203.960587 207.119003,203.618759 
	C209.346664,202.022644 211.432495,200.768356 213.652496,199.649384 
	C213.786667,199.784683 214.055115,200.055161 214.055115,200.055161 
z"/>
<path fill="#ECD35D" opacity="1.000000" stroke="none" 
	d="
M224.078293,189.073120 
	C223.601761,192.363770 222.728500,195.343506 218.456528,196.042755 
	C218.027435,196.022339 217.893860,195.892563 218.035492,195.594330 
	C220.068146,193.154556 221.959167,191.013016 223.850189,188.871460 
	C223.850189,188.871445 224.002045,189.006134 224.078293,189.073120 
z"/>
<path fill="#ECD35D" opacity="1.000000" stroke="none" 
	d="
M158.085831,180.919327 
	C159.552322,181.204254 161.018814,181.489182 162.461716,181.769531 
	C162.011780,182.888245 161.559448,184.012924 161.089478,185.528015 
	C161.071854,185.918427 160.967621,186.029465 160.686646,185.866943 
	C159.468704,184.251755 158.531769,182.799072 157.717865,181.239960 
	C157.840912,181.133514 158.085831,180.919327 158.085831,180.919327 
z"/>
<path fill="#ECD35D" opacity="1.000000" stroke="none" 
	d="
M203.194611,189.467926 
	C202.335251,190.128860 201.628250,190.505402 200.309113,191.207977 
	C202.340607,187.567215 202.340607,187.567215 203.194611,189.467926 
z"/>
<path fill="#ECD35D" opacity="1.000000" stroke="none" 
	d="
M234.525543,178.248825 
	C233.832001,177.640182 233.355362,176.796661 232.878723,175.953156 
	C233.348312,175.802673 233.817902,175.652191 234.287506,175.501709 
	C234.439148,176.339127 234.590790,177.176544 234.525543,178.248825 
z"/>
<path fill="#ECD35D" opacity="1.000000" stroke="none" 
	d="
M215.724426,169.457809 
	C216.578934,169.726654 217.188370,170.199020 217.797821,170.671387 
	C217.505386,170.974136 217.212952,171.276886 216.920502,171.579620 
	C216.440109,170.940186 215.959717,170.300766 215.724426,169.457809 
z"/>
<path fill="#ECD35D" opacity="1.000000" stroke="none" 
	d="
M235.474030,155.753448 
	C236.152054,156.339539 236.614029,157.159821 237.076004,157.980103 
	C236.620941,158.150909 236.165894,158.321701 235.710831,158.492508 
	C235.559875,157.657562 235.408920,156.822617 235.474030,155.753448 
z"/>
<path fill="#ECD35D" opacity="1.000000" stroke="none" 
	d="
M168.096878,191.881149 
	C169.364944,192.328751 170.632996,192.776352 171.999084,193.562439 
	C172.097122,193.900894 171.906693,194.123596 171.494812,194.170288 
	C170.015244,193.521179 168.947556,192.825409 167.934921,192.068207 
	C167.989990,192.006805 168.096878,191.881149 168.096878,191.881149 
z"/>
<path fill="#ECD35D" opacity="1.000000" stroke="none" 
	d="
M164.078079,187.920105 
	C165.046249,188.697876 166.014404,189.475632 166.944214,190.684341 
	C166.905853,191.115280 166.710342,191.328003 166.415375,191.230286 
	C165.214569,190.295898 164.308746,189.459259 163.571655,188.446945 
	C163.740402,188.271271 164.078079,187.920105 164.078079,187.920105 
z"/>
<path fill="#ECD35D" opacity="1.000000" stroke="none" 
	d="
M155.904785,177.070969 
	C156.708649,178.033371 157.368179,179.112015 158.056763,180.554993 
	C158.085831,180.919327 157.840912,181.133514 157.477768,181.021851 
	C156.566589,179.746185 156.018555,178.582184 155.470520,177.418198 
	C155.470520,177.418198 155.760437,177.187225 155.904785,177.070969 
z"/>
<path fill="#ECD35D" opacity="1.000000" stroke="none" 
	d="
M225.607819,167.567520 
	C226.479340,167.860413 227.142242,168.356445 227.805130,168.852463 
	C227.482742,169.166397 227.160370,169.480347 226.837982,169.794281 
	C226.358383,169.119736 225.878784,168.445190 225.607819,167.567520 
z"/>
<path fill="#ECD35D" opacity="1.000000" stroke="none" 
	d="
M213.193405,118.788971 
	C212.949753,118.233810 213.003128,117.738869 213.056503,117.243927 
	C213.503159,117.356270 213.949829,117.468613 214.396484,117.580956 
	C214.094467,118.003700 213.792450,118.426445 213.193405,118.788971 
z"/>
<path fill="#ECD35D" opacity="1.000000" stroke="none" 
	d="
M217.038971,198.031342 
	C216.253189,198.676102 215.467392,199.320847 214.368362,200.010376 
	C214.055115,200.055161 213.786667,199.784683 213.837677,199.414429 
	C214.698013,198.470490 215.507355,197.896774 216.496826,197.500595 
	C216.797607,197.795853 216.918274,197.913589 217.038971,198.031342 
z"/>
<path fill="#ECD35D" opacity="1.000000" stroke="none" 
	d="
M161.120911,185.860168 
	C162.087280,186.292114 163.004593,186.782288 164.000000,187.596283 
	C164.078079,187.920105 163.740402,188.271271 163.311096,188.290924 
	C162.243744,187.550217 161.605682,186.789841 160.967621,186.029465 
	C160.967621,186.029465 161.071854,185.918427 161.120911,185.860168 
z"/>
<path fill="#ECD35D" opacity="1.000000" stroke="none" 
	d="
M235.613831,131.540817 
	C236.055984,131.655136 236.327164,131.934067 236.577042,132.230896 
	C236.583771,132.238907 236.360291,132.440689 236.244141,132.552094 
	C235.976074,132.270676 235.708008,131.989258 235.613831,131.540817 
z"/>
<path fill="#ECD35D" opacity="1.000000" stroke="none" 
	d="
M218.095779,196.085602 
	C217.945557,196.667679 217.726990,197.186523 217.273682,197.868347 
	C216.918274,197.913589 216.797607,197.795853 216.654022,197.278091 
	C217.052032,196.549561 217.472946,196.221069 217.893860,195.892578 
	C217.893860,195.892563 218.027435,196.022339 218.095779,196.085602 
z"/>
<path fill="#ECD35D" opacity="1.000000" stroke="none" 
	d="
M201.979401,193.972717 
	C202.364929,193.567123 202.830566,193.265533 203.573334,192.901154 
	C203.850464,192.838364 204.011032,193.023712 203.917847,193.349594 
	C203.290192,193.878174 202.755722,194.080872 202.221237,194.283585 
	C202.221237,194.283585 202.059479,194.076752 201.979401,193.972717 
z"/>
<path fill="#ECD35D" opacity="1.000000" stroke="none" 
	d="
M167.006821,191.011963 
	C167.403397,191.036407 167.651443,191.226273 167.974411,191.679703 
	C168.096878,191.881149 167.989990,192.006805 167.691345,192.015915 
	C167.067566,191.888321 166.840103,191.655991 166.710342,191.328003 
	C166.710342,191.328003 166.905853,191.115280 167.006821,191.011963 
z"/>
<path fill="#FEDCCD" opacity="1.000000" stroke="none" 
	d="
M330.032532,220.918472 
	C334.762390,223.934296 336.480957,230.515533 333.877625,236.188156 
	C330.570435,243.394547 327.148987,250.548492 323.182007,258.990906 
	C326.777863,258.990906 329.316040,258.991119 331.854248,258.990875 
	C337.842651,258.990356 343.833313,258.888733 349.818695,259.023346 
	C354.032379,259.118073 357.697662,260.381348 359.092865,265.699951 
	C358.640503,267.156860 358.403961,268.323517 357.848602,268.502838 
	C354.840851,269.473938 351.659271,269.958008 348.730743,271.103638 
	C346.995544,271.782440 345.616852,273.372650 344.077881,274.553070 
	C345.298035,275.738831 346.333832,277.545502 347.778687,277.974579 
	C350.384369,278.748383 353.234863,278.697845 355.983093,278.991608 
	C360.017792,279.722992 362.609436,281.917572 362.885803,286.665955 
	C358.698914,288.480103 354.775787,289.588867 351.018585,291.107971 
	C349.534973,291.707764 347.909821,293.018311 347.357605,294.406433 
	C347.087830,295.084656 348.918060,297.045471 350.175262,297.776764 
	C351.960388,298.815155 354.093658,299.255035 356.078186,299.950653 
	C357.111176,301.302277 358.144196,302.653870 359.091675,304.725372 
	C356.539978,309.482941 352.811188,310.327240 348.363403,310.142548 
	C346.976593,310.084961 345.523529,311.622620 344.100769,312.429993 
	C345.066132,314.111420 345.674347,316.262451 347.096100,317.343903 
	C348.555389,318.453888 350.809875,318.518524 352.716339,319.040649 
	C352.785217,319.197327 352.854065,319.354004 353.077789,319.976257 
	C353.424744,320.711456 353.682068,320.883545 354.004578,320.958191 
	C354.768768,322.356934 355.532990,323.755646 355.978119,325.655945 
	C352.039307,327.437927 348.437927,329.762054 344.796814,329.826019 
	C324.210358,330.187805 303.614441,330.007690 283.015320,329.543823 
	C282.998505,323.713837 282.988159,318.352173 282.985657,312.522522 
	C282.999146,306.614014 282.885864,301.170044 283.046936,295.734161 
	C283.182098,291.171906 283.637207,286.619171 284.246948,281.775818 
	C284.690826,280.852570 284.943115,280.220215 284.970612,279.578247 
	C285.451263,268.362335 289.073517,259.068298 299.845612,253.646423 
	C307.233368,249.927979 312.421936,243.881348 315.303070,236.183960 
	C318.049103,228.847336 322.221191,223.211716 330.032532,220.918472 
z"/>
<path fill="#F1F4F5" opacity="1.000000" stroke="none" 
	d="
M283.950684,282.062225 
	C283.637207,286.619171 283.182098,291.171906 283.046936,295.734161 
	C282.885864,301.170044 282.999146,306.614014 282.627563,312.586670 
	C280.728149,314.050934 279.153503,315.843567 277.668213,315.772339 
	C269.440857,315.377899 260.766022,318.410400 253.129578,312.948883 
	C253.085373,297.665833 253.018784,282.382812 253.013077,267.099762 
	C253.011688,263.381927 254.673615,260.147308 258.433777,259.815399 
	C264.825348,259.251160 271.300385,259.400574 277.725952,259.638458 
	C279.090729,259.688995 280.393829,261.405334 282.036102,263.057159 
	C282.881470,269.860840 283.416077,275.961517 283.950684,282.062225 
z"/>
<path fill="#CFE2E5" opacity="1.000000" stroke="none" 
	d="
M253.054718,313.416931 
	C260.766022,318.410400 269.440857,315.377899 277.668213,315.772339 
	C279.153503,315.843567 280.728149,314.050934 282.619659,313.054688 
	C282.988159,318.352173 282.998505,323.713837 283.001953,329.905396 
	C282.979919,331.456390 282.964813,332.177551 282.949677,332.898682 
	C276.649231,336.786499 269.631042,336.061676 262.761658,335.853333 
	C255.506516,335.633270 252.984756,332.871307 252.953049,325.774200 
	C252.935333,321.811249 252.969223,317.848083 253.054718,313.416931 
z"/>
<path fill="#F7CDBF" opacity="1.000000" stroke="none" 
	d="
M284.246948,281.775818 
	C283.416077,275.961517 282.881470,269.860840 282.193848,263.379028 
	C282.948425,261.441437 283.741150,259.802460 284.787476,258.345642 
	C286.975098,255.299774 288.705719,251.418304 291.674133,249.536072 
	C300.447235,243.973129 305.682404,236.113068 309.350922,226.716293 
	C312.922638,217.567566 322.455994,214.689194 329.952026,220.570679 
	C322.221191,223.211716 318.049103,228.847336 315.303070,236.183960 
	C312.421936,243.881348 307.233368,249.927979 299.845612,253.646423 
	C289.073517,259.068298 285.451263,268.362335 284.970612,279.578247 
	C284.943115,280.220215 284.690826,280.852570 284.246948,281.775818 
z"/>
<path fill="#F8CDBF" opacity="1.000000" stroke="none" 
	d="
M283.255615,333.089996 
	C282.964813,332.177551 282.979919,331.456390 283.008392,330.373718 
	C303.614441,330.007690 324.210358,330.187805 344.796814,329.826019 
	C348.437927,329.762054 352.039307,327.437927 356.022491,326.008545 
	C357.657990,331.954407 354.041260,336.951599 348.019043,336.980530 
	C329.540253,337.069244 311.057709,337.178925 292.584564,336.843689 
	C289.556335,336.788696 286.568207,334.524506 283.255615,333.089996 
z"/>
<path fill="#F2CEBF" opacity="1.000000" stroke="none" 
	d="
M352.958191,318.772919 
	C350.809875,318.518524 348.555389,318.453888 347.096100,317.343903 
	C345.674347,316.262451 345.066132,314.111420 344.100769,312.429993 
	C345.523529,311.622620 346.976593,310.084961 348.363403,310.142548 
	C352.811188,310.327240 356.539978,309.482941 359.108215,305.070435 
	C361.807831,308.284271 360.694885,313.428070 356.590393,316.480316 
	C355.539490,317.261810 354.334351,317.835846 352.958191,318.772919 
z"/>
<path fill="#F3CFBF" opacity="1.000000" stroke="none" 
	d="
M356.110474,299.611816 
	C354.093658,299.255035 351.960388,298.815155 350.175262,297.776764 
	C348.918060,297.045471 347.087830,295.084656 347.357605,294.406433 
	C347.909821,293.018311 349.534973,291.707764 351.018585,291.107971 
	C354.775787,289.588867 358.698914,288.480103 362.903137,287.041656 
	C366.506195,289.634857 363.833374,291.985992 362.351379,293.885223 
	C360.697113,296.005188 358.246674,297.503906 356.110474,299.611816 
z"/>
<path fill="#F5CEBF" opacity="1.000000" stroke="none" 
	d="
M355.999023,278.635681 
	C353.234863,278.697845 350.384369,278.748383 347.778687,277.974579 
	C346.333832,277.545502 345.298035,275.738831 344.077881,274.553070 
	C345.616852,273.372650 346.995544,271.782440 348.730743,271.103638 
	C351.659271,269.958008 354.840851,269.473938 357.848602,268.502838 
	C358.403961,268.323517 358.640503,267.156860 359.115234,266.055969 
	C362.616394,268.676086 360.616241,271.574127 358.938507,274.391998 
	C358.113800,275.777100 356.998657,276.989288 355.999023,278.635681 
z"/>
<path fill="#F2CEBF" opacity="1.000000" stroke="none" 
	d="
M353.909760,320.740845 
	C353.682068,320.883545 353.424744,320.711456 353.137939,320.225800 
	C353.372406,320.072968 353.629639,320.244232 353.909760,320.740845 
z"/>
<path fill="#2A3C5F" opacity="1.000000" stroke="none" 
	d="
M211.161240,146.415161 
	C210.579880,139.905579 211.131042,134.007874 214.476303,128.718185 
	C218.406555,122.503487 225.393295,122.526970 229.244522,128.680954 
	C234.273209,136.716431 233.885178,149.498199 228.384155,157.021271 
	C224.752457,161.987930 219.713821,162.499863 216.063293,157.572586 
	C213.780518,154.491440 212.787354,150.454834 211.161240,146.415161 
z"/>
<path fill="#2C3C5E" opacity="1.000000" stroke="none" 
	d="
M166.415375,191.230286 
	C166.840103,191.655991 167.067566,191.888321 167.636292,192.077332 
	C168.947556,192.825409 170.015244,193.521179 171.401398,194.283142 
	C181.639908,199.692108 191.641846,199.235031 201.960785,194.528061 
	C202.755722,194.080872 203.290192,193.878174 203.997208,193.443054 
	C210.618484,190.146713 214.756485,184.855072 217.876282,178.690536 
	C219.535858,175.411316 221.494034,172.664246 225.481430,174.787735 
	C229.430359,176.890747 228.285889,180.265137 226.676025,183.410995 
	C225.846634,185.031693 224.909256,186.597137 223.935440,188.529495 
	C221.959167,191.013016 220.068146,193.154556 218.035492,195.594345 
	C217.472946,196.221069 217.052032,196.549561 216.473907,197.100571 
	C215.507355,197.896774 214.698013,198.470490 213.703506,199.279144 
	C211.432495,200.768356 209.346664,202.022644 207.042328,203.526352 
	C189.463501,210.961975 173.174667,209.539078 157.896667,197.539383 
	C155.692764,195.272766 153.771729,193.188339 151.580597,190.918823 
	C149.700226,187.839050 147.530655,185.098770 146.674103,181.996002 
	C146.092102,179.887741 147.350769,177.271332 148.019867,174.596893 
	C150.518646,175.166702 152.783844,176.021790 155.259781,177.147552 
	C156.018555,178.582184 156.566589,179.746185 157.354721,181.128281 
	C158.531769,182.799072 159.468704,184.251755 160.686646,185.866943 
	C161.605682,186.789841 162.243744,187.550217 163.142365,188.466614 
	C164.308746,189.459259 165.214569,190.295898 166.415375,191.230286 
z"/>
</svg>